<svg viewBox="0 0 1024 1024" xmlns="http://www.w3.org/2000/svg" xmlns:xlink="http://www.w3.org/1999/xlink" width="1024.000000" height="1024.000000" fill="none" customFrame="#000000">
	<g id="AppIcon">
		<rect id="Rectangle 12" width="1024.000000" height="1024.000000" x="0.000000" y="0.000000" fill="rgb(0,0,0)" />
		<path id="" d="M91.5812 472.262L45.3373 472.262L45.3373 438.51L180.185 438.51L180.185 472.262L134.151 472.262L134.151 589L91.5812 589L91.5812 472.262ZM241.857 549.002L218.657 549.002L218.657 589L176.087 589L176.087 438.51L244.849 438.51C258.497 438.51 270.325 440.768 280.333 445.282C290.376 449.796 298.109 456.252 303.534 464.651C308.992 473.014 311.722 482.865 311.722 494.203C311.722 505.086 309.167 514.586 304.058 522.705C298.984 530.788 291.723 537.122 282.275 541.706L314.766 589L269.152 589L241.857 549.002ZM268.732 494.203C268.732 487.169 266.51 481.727 262.066 477.878C257.622 473.994 251.026 472.052 242.277 472.052L218.657 472.052L218.657 516.091L242.277 516.091C251.026 516.091 257.622 514.201 262.066 510.422C266.51 506.608 268.732 501.201 268.732 494.203ZM416.021 559.763L352.35 559.763L340.54 589L297.131 589L363.531 438.51L405.47 438.51L472.133 589L427.831 589L416.021 559.763ZM403.528 528.374L384.212 480.188L364.843 528.374L403.528 528.374ZM464.177 438.51L506.747 438.51L506.747 589L464.177 589L464.177 438.51ZM660.256 438.51L660.256 589L625.192 589L558.739 508.795L558.739 589L517.062 589L517.062 438.51L552.073 438.51L618.526 518.716L618.526 438.51L660.256 438.51ZM771.186 559.763L707.515 559.763L695.705 589L652.296 589L718.696 438.51L760.635 438.51L827.298 589L782.996 589L771.186 559.763ZM758.693 528.374L739.377 480.188L720.008 528.374L758.693 528.374ZM926.411 559.763L862.74 559.763L850.93 589L807.521 589L873.921 438.51L915.86 438.51L982.523 589L938.221 589L926.411 559.763ZM913.918 528.374L894.602 480.188L875.233 528.374L913.918 528.374Z" fill="rgb(255,255,255)" fill-rule="nonzero" />
	</g>
</svg>
